<svg width="55" height="55" viewBox="0 0 55 55" fill="none" xmlns="http://www.w3.org/2000/svg">
<path d="M25.6001 1.77682C26.2031 -0.0567265 28.7969 -0.0567286 29.3999 1.77682L34.9803 18.7447C35.1787 19.348 35.652 19.8213 36.2553 20.0197L53.2232 25.6001C55.0567 26.2031 55.0567 28.7969 53.2232 29.3999L36.2553 34.9803C35.652 35.1787 35.1787 35.652 34.9803 36.2553L29.3999 53.2232C28.7969 55.0567 26.2031 55.0567 25.6001 53.2232L20.0197 36.2553C19.8213 35.652 19.348 35.1787 18.7447 34.9803L1.77682 29.3999C-0.0567265 28.7969 -0.0567286 26.2031 1.77682 25.6001L18.7447 20.0197C19.348 19.8213 19.8213 19.348 20.0197 18.7447L25.6001 1.77682Z" fill="#FE6927"/>
</svg>
