<svg width="74" height="74" viewBox="0 0 74 74" fill="none" xmlns="http://www.w3.org/2000/svg">
<path d="M35.0185 2.47924C35.3339 0.174146 38.6661 0.174145 38.9815 2.47924L40.7934 15.7188C41.0337 17.4744 43.2695 18.0735 44.3554 16.6733L52.5443 6.11338C53.9701 4.27484 56.8558 5.94091 55.9764 8.09491L50.9258 20.4667C50.256 22.1072 51.8928 23.744 53.5333 23.0742L65.9051 18.0236C68.0591 17.1442 69.7252 20.0299 67.8866 21.4557L57.3268 29.6446C55.9265 30.7305 56.5256 32.9663 58.2812 33.2066L71.5208 35.0185C73.8259 35.3339 73.8259 38.6661 71.5208 38.9815L58.2812 40.7934C56.5256 41.0337 55.9265 43.2695 57.3268 44.3554L67.8866 52.5443C69.7252 53.9701 68.0591 56.8558 65.9051 55.9764L53.5333 50.9258C51.8928 50.256 50.256 51.8928 50.9258 53.5333L55.9764 65.9051C56.8558 68.0591 53.9701 69.7252 52.5443 67.8866L44.3554 57.3268C43.2695 55.9265 41.0337 56.5256 40.7934 58.2812L38.9815 71.5208C38.6661 73.8259 35.3339 73.8259 35.0185 71.5208L33.2066 58.2812C32.9663 56.5256 30.7305 55.9265 29.6446 57.3268L21.4557 67.8866C20.0299 69.7252 17.1442 68.0591 18.0236 65.9051L23.0742 53.5333C23.744 51.8928 22.1072 50.256 20.4667 50.9258L8.09491 55.9764C5.94091 56.8558 4.27484 53.9701 6.11338 52.5443L16.6732 44.3554C18.0735 43.2695 17.4744 41.0337 15.7188 40.7934L2.47924 38.9815C0.174146 38.6661 0.174145 35.3339 2.47924 35.0185L15.7188 33.2066C17.4744 32.9663 18.0735 30.7305 16.6733 29.6446L6.11338 21.4557C4.27484 20.0299 5.94091 17.1442 8.09491 18.0236L20.4667 23.0742C22.1072 23.744 23.744 22.1072 23.0742 20.4667L18.0236 8.09491C17.1442 5.94091 20.0299 4.27484 21.4557 6.11338L29.6446 16.6732C30.7305 18.0735 32.9663 17.4744 33.2066 15.7188L35.0185 2.47924Z" fill="#FBD717"/>
</svg>
