<svg width="24" height="24" viewBox="0 0 24 24" fill="none" xmlns="http://www.w3.org/2000/svg">
<path d="M11.0537 0.771247C11.3618 -0.131201 12.6382 -0.131205 12.9463 0.771243L15.4052 7.97164C15.5052 8.26464 15.7354 8.49476 16.0284 8.59482L23.2288 11.0537C24.1312 11.3618 24.1312 12.6382 23.2288 12.9463L16.0284 15.4052C15.7354 15.5052 15.5052 15.7354 15.4052 16.0284L12.9463 23.2288C12.6382 24.1312 11.3618 24.1312 11.0537 23.2288L8.59482 16.0284C8.49476 15.7354 8.26464 15.5052 7.97164 15.4052L0.771247 12.9463C-0.131201 12.6382 -0.131205 11.3618 0.771243 11.0537L7.97164 8.59482C8.26464 8.49476 8.49476 8.26464 8.59482 7.97164L11.0537 0.771247Z" fill="#FE6927"/>
</svg>
