<svg width="214" height="20" viewBox="0 0 214 20" fill="none" xmlns="http://www.w3.org/2000/svg">
<path d="M1.76533 10.9711C-0.34038 12.7575 -0.59919 15.9127 1.18727 18.0184C2.97372 20.1242 6.12895 20.383 8.23467 18.5965L1.76533 10.9711ZM209.639 11.3309L213.592 8.26932L209.639 11.3309ZM176.058 10.1757L172.593 13.7799L176.058 10.1757ZM192.28 10.1206L195.77 13.7012L192.28 10.1206ZM174.642 8.81417L171.177 12.4184L174.642 8.81417ZM143.575 10.1858L140.109 13.7901L143.575 10.1858ZM142.687 9.33231L139.221 12.9365L142.687 9.33231ZM87.2124 8.87484L83.9807 5.05957L87.2124 8.87484ZM106.224 8.35329L103.206 12.34L106.224 8.35329ZM85.456 10.3626L82.2243 6.54731L85.456 10.3626ZM31.0592 9.72678L27.7363 13.4629L31.0592 9.72678ZM8.23467 18.5965L14.8133 13.0153L8.34394 5.38986L1.76533 10.9711L8.23467 18.5965ZM27.3984 13.1624L27.7363 13.4629L34.382 5.99066L34.0441 5.69013L27.3984 13.1624ZM53.014 13.5408L53.9749 12.6967L47.3754 5.18366L46.4145 6.02775L53.014 13.5408ZM88.6877 14.1778L90.4441 12.6901L83.9807 5.05957L82.2243 6.54731L88.6877 14.1778ZM103.206 12.34L107.432 15.5383L113.467 7.56494L109.242 4.36659L103.206 12.34ZM139.221 12.9365L140.109 13.7901L147.04 6.5816L146.152 5.72808L139.221 12.9365ZM171.177 12.4184L172.593 13.7799L179.524 6.57149L178.108 5.20995L171.177 12.4184ZM205.686 14.3926L206.047 14.8589L213.953 8.73568L213.592 8.26932L205.686 14.3926ZM195.77 13.7012C198.619 10.9246 203.25 11.2475 205.686 14.3926L213.592 8.26932C207.499 0.402951 195.915 -0.40476 188.79 6.53999L195.77 13.7012ZM172.593 13.7799C179.074 20.0118 189.331 19.9769 195.77 13.7012L188.79 6.53999C186.216 9.04908 182.115 9.06302 179.524 6.57149L172.593 13.7799ZM162.878 12.7848C165.031 10.3137 168.814 10.1467 171.177 12.4184L178.108 5.20995C171.625 -1.02295 161.247 -0.564733 155.339 6.21521L162.878 12.7848ZM140.109 13.7901C146.592 20.0229 156.97 19.5647 162.878 12.7848L155.339 6.21521C153.185 8.68632 149.403 8.85333 147.04 6.5816L140.109 13.7901ZM129.795 13.3153C132.258 10.533 136.543 10.3609 139.221 12.9365L146.152 5.72808C139.376 -0.787075 128.539 -0.351682 122.308 6.68607L129.795 13.3153ZM107.432 15.5383C114.322 20.7538 124.066 19.7852 129.795 13.3153L122.308 6.68607C120.043 9.24386 116.191 9.6268 113.467 7.56494L107.432 15.5383ZM90.4441 12.6901C94.0918 9.6004 99.3948 9.45492 103.206 12.34L109.242 4.36659C101.697 -1.34398 91.2007 -1.05603 83.9807 5.05957L90.4441 12.6901ZM64.588 13.0832C71.0968 19.699 81.606 20.1763 88.6877 14.1778L82.2243 6.54731C79.1366 9.16273 74.5544 8.9546 71.7165 6.07002L64.588 13.0832ZM53.9749 12.6967C57.0554 9.99082 61.7125 10.1604 64.588 13.0832L71.7165 6.07002C65.1216 -0.633383 54.4404 -1.02232 47.3754 5.18366L53.9749 12.6967ZM27.7363 13.4629C34.9348 19.8652 45.7762 19.8986 53.014 13.5408L46.4145 6.02775C42.9692 9.05412 37.8086 9.03821 34.382 5.99066L27.7363 13.4629ZM14.8133 13.0153C18.4591 9.92222 23.8258 9.98493 27.3984 13.1624L34.0441 5.69013C26.7485 -0.798545 15.7892 -0.926583 8.34394 5.38986L14.8133 13.0153Z" fill="url(#paint0_linear_380_3716)"/>
<defs>
<linearGradient id="paint0_linear_380_3716" x1="94.8368" y1="4.44593" x2="210.207" y2="11.4019" gradientUnits="userSpaceOnUse">
<stop stop-color="#4EAFFE"/>
<stop offset="1" stop-color="#4EAFFE" stop-opacity="0"/>
</linearGradient>
</defs>
</svg>
