<svg width="442" height="35" viewBox="0 0 442 35" fill="none" xmlns="http://www.w3.org/2000/svg">
<path d="M2.69946 23.1261C0.00765328 25.5012 -0.249069 29.6087 2.12605 32.3005C4.50118 34.9923 8.60873 35.2491 11.3005 32.8739L2.69946 23.1261ZM435.151 20.3603L429.938 24.2425L435.151 20.3603ZM364.963 17.9627L360.367 22.5589L364.963 17.9627ZM398.921 17.8472L403.548 22.412L398.921 17.8472ZM362.066 15.066L357.47 19.6622L362.066 15.066ZM296.934 17.934L292.338 22.5302L296.934 17.934ZM329.5 16.5L324.518 12.3256L329.5 16.5ZM295.198 16.1976L290.601 20.7938L295.198 16.1976ZM260.317 17.5956L255.368 13.382L260.317 17.5956ZM102.529 15.3315L98.1449 10.5326L102.529 15.3315ZM11.3005 32.8739L25.0491 20.7429L16.448 10.995L2.69946 23.1261L11.3005 32.8739ZM56.4126 21.111L57.1235 21.7686L65.951 12.2253L65.2401 11.5677L56.4126 21.111ZM104.958 21.9166L106.913 20.1304L98.1449 10.5326L96.1896 12.3189L104.958 21.9166ZM179.732 23.196L183.34 20.0176L174.747 10.2629L171.139 13.4413L179.732 23.196ZM214.853 19.1463L223.519 25.9686L231.561 15.754L222.895 8.93174L214.853 19.1463ZM290.601 20.7938L292.338 22.5302L301.53 13.3378L299.794 11.6014L290.601 20.7938ZM357.47 19.6622L360.367 22.5589L369.559 13.3665L366.662 10.4698L357.47 19.6622ZM429.938 24.2425L430.787 25.3822L441.213 17.6178L440.365 16.4781L429.938 24.2425ZM403.548 22.412C411.048 14.8093 423.56 15.6771 429.938 24.2425L440.365 16.4781C429.229 1.52464 407.387 0.00958627 394.294 13.2824L403.548 22.412ZM360.367 22.5589C372.308 34.5002 391.689 34.4342 403.548 22.412L394.294 13.2824C387.5 20.1688 376.399 20.2065 369.559 13.3665L360.367 22.5589ZM334.482 20.6744C340.363 13.6559 350.995 13.1877 357.47 19.6622L366.662 10.4698C354.792 -1.4004 335.299 -0.542044 324.518 12.3256L334.482 20.6744ZM292.338 22.5302C304.208 34.4004 323.701 33.542 334.482 20.6744L324.518 12.3256C318.637 19.3441 308.005 19.8123 301.53 13.3378L292.338 22.5302ZM265.267 21.8092C271.796 14.1399 283.479 13.6716 290.601 20.7938L299.794 11.6014C287.305 -0.887666 266.817 -0.066488 255.368 13.382L265.267 21.8092ZM223.519 25.9686C236.292 36.024 254.729 34.1871 265.267 21.8092L255.368 13.382C249.358 20.4408 238.845 21.4883 231.561 15.754L223.519 25.9686ZM183.34 20.0176C192.258 12.1613 205.515 11.7947 214.853 19.1463L222.895 8.93174C208.627 -2.3005 188.372 -1.74052 174.747 10.2629L183.34 20.0176ZM134.436 21.1341C146.517 33.9051 166.541 34.8167 179.732 23.196L171.139 13.4413C163.201 20.4345 151.15 19.8859 143.88 12.2005L134.436 21.1341ZM106.913 20.1304C114.826 12.9018 127.071 13.3484 134.436 21.1341L143.88 12.2005C131.642 -0.737137 111.293 -1.47923 98.1449 10.5326L106.913 20.1304ZM57.1235 21.7686C70.6071 34.241 91.3974 34.3053 104.958 21.9166L96.1896 12.3189C87.6173 20.1504 74.4747 20.1097 65.951 12.2253L57.1235 21.7686ZM25.0491 20.7429C34.0498 12.801 47.6008 12.9601 56.4126 21.111L65.2401 11.5677C51.5316 -1.11262 30.4504 -1.3601 16.448 10.995L25.0491 20.7429Z" fill="url(#paint0_linear_139_6070)"/>
<defs>
<linearGradient id="paint0_linear_139_6070" x1="195" y1="5.49997" x2="436.5" y2="19.5" gradientUnits="userSpaceOnUse">
<stop stop-color="#FFD829"/>
<stop offset="1" stop-color="#FFD829" stop-opacity="0"/>
</linearGradient>
</defs>
</svg>
