<svg width="382" height="418" viewBox="0 0 382 418" fill="none" xmlns="http://www.w3.org/2000/svg">
<g clip-path="url(#clip0_139_5985)">
<path d="M198.883 249.857L190.6 255.969L164.269 246.901C164.269 246.901 151.723 259.025 145.601 255.969C139.478 252.913 143.46 230.922 143.46 230.922C143.46 230.922 99.9818 225.309 102.423 217.559C104.344 211.467 136.137 222.073 149.663 226.887C151.703 219.177 155.785 211.866 159.687 213.165C167.03 215.621 166.109 226.627 166.109 226.627L198.883 249.837V249.857Z" fill="#FFC000"/>
<path d="M198.263 250.716L165.009 227.147L165.049 226.547C165.049 226.447 165.809 216.321 159.327 214.183C157.446 213.564 154.945 216.181 152.784 221.034C149.042 229.444 148.162 240.09 151.083 241.728C151.563 242.007 151.984 242.027 152.424 241.808C155.585 240.25 158.286 228.764 159.247 221.913L161.327 222.193C161.067 224.13 158.546 241.109 153.364 243.685C152.304 244.205 151.163 244.165 150.083 243.565C145.161 240.789 147.442 227.985 150.903 220.216C153.664 214.024 156.886 211.187 160.007 212.226C167.09 214.583 167.27 223.671 167.19 226.148L199.483 249.058L198.263 250.756V250.716Z" fill="#081133"/>
<path d="M160.603 226.266L158.505 226.383L159.827 249.916L161.925 249.798L160.603 226.266Z" fill="#081133"/>
<path d="M160.763 244.948L142.178 246.901L142.396 248.967L160.981 247.014L160.763 244.948Z" fill="#081133"/>
<path d="M148.411 238.39L141.263 240.387L141.829 242.407L148.977 240.41L148.411 238.39Z" fill="#081133"/>
<path d="M143.565 229.899L143.355 231.966L148.591 232.495L148.8 230.428L143.565 229.899Z" fill="#081133"/>
<path d="M269.793 185.64L240.161 266.016C240.161 266.016 180.376 193.63 169.051 253.133L256.187 293.141L284.559 197.804L269.773 185.62L269.793 185.64Z" fill="#303030"/>
<path d="M287.941 331.072L312.311 270.87C312.311 270.87 344.064 272.967 341.963 247.221H286.18L284.439 253.133L208.107 318.908L254.126 375.974C254.126 375.974 242.982 377.372 258.308 388.159L263.53 396.508L293.123 397.127L266.091 354.722L323.816 342.557C323.816 342.557 329.098 351.426 333.98 349.688C338.862 347.931 344.304 339.501 344.304 339.501C344.304 339.501 340.223 342.897 349.967 341.499C359.731 340.121 361.071 320.626 361.071 320.626L287.941 331.072ZM256.427 339.481L245.403 322.184L278.597 290.145L256.427 339.481Z" fill="#FF6B3E"/>
<path d="M287.64 269.991L247.844 358.577L296.544 348.31L252.886 354.762L291.762 268.453L277.296 263.919L287.64 269.991Z" fill="#081133"/>
<path d="M247.144 384.683C247.144 384.683 253.766 377.033 265.611 392.333C265.611 392.333 272.334 377.952 296.044 391.175L301.206 412.168L206.006 415.903C206.006 415.903 205.426 381.088 257.148 398.705L247.144 384.663V384.683Z" fill="#F7E7C6"/>
<path d="M301.118 410.086L205.931 413.803L206.094 417.975L301.281 414.258L301.118 410.086Z" fill="#303030"/>
<path d="M255.192 396.201L254.248 398.052L260.862 401.416L261.806 399.565L255.192 396.201Z" fill="#303030"/>
<path d="M252.336 392.432L251.904 394.484L260.618 396.311L261.05 394.259L252.336 392.432Z" fill="#303030"/>
<path d="M266.592 392.733L264.651 391.954C264.731 391.774 266.452 387.559 271.874 385.582C278.117 383.285 286.4 384.883 296.544 390.276L295.564 392.113C286.14 387.1 278.217 385.522 272.654 387.519C268.092 389.157 266.652 392.593 266.592 392.733Z" fill="#303030"/>
<path d="M279.817 413.226C278.417 407.733 279.057 403.419 281.718 400.363C286.76 394.59 297.084 395.669 297.525 395.729L297.284 397.806C297.184 397.806 287.58 396.807 283.279 401.741C281.098 404.238 280.617 407.933 281.838 412.727L279.817 413.246V413.226Z" fill="#303030"/>
<path d="M251.385 408.572L208.467 406.974L208.527 404.877L248.644 406.375L245.943 396.008L247.964 395.469L251.385 408.572Z" fill="#303030"/>
<path d="M255.767 388.598C255.767 389.557 254.126 390.336 252.106 390.336C250.085 390.336 248.444 389.557 248.444 388.598C248.444 387.639 250.085 386.86 252.106 386.86C254.126 386.86 255.767 387.639 255.767 388.598Z" fill="#303030"/>
<path d="M356.249 343.277L337.081 350.927C337.081 350.927 335.34 337.364 352.768 336.306C352.768 336.306 342.303 331.092 351.727 317.17L371.936 318.908L367.734 387.16C367.734 387.16 335.04 382.766 356.269 343.257L356.249 343.277Z" fill="#F7E7C6"/>
<path d="M369.885 318.796L365.655 387.057L369.828 387.315L374.058 319.054L369.885 318.796Z" fill="#303030"/>
<path d="M357.699 338.623L354.39 344.626L356.231 345.637L359.539 339.634L357.699 338.623Z" fill="#303030"/>
<path d="M352.731 338.686L349.685 346.247L351.634 347.03L354.68 339.469L352.731 338.686Z" fill="#303030"/>
<path d="M352.308 337.244C352.148 337.164 348.346 335.267 347.126 330.673C346.045 326.618 347.286 321.884 350.847 316.591L352.588 317.75C349.386 322.503 348.226 326.658 349.126 330.094C350.087 333.769 353.188 335.347 353.228 335.367L352.308 337.244Z" fill="#303030"/>
<path d="M367.814 335.646C363.932 335.646 360.851 334.508 358.61 332.251C353.468 327.018 354.889 317.769 354.949 317.37L357.009 317.71C357.009 317.71 355.689 326.318 360.091 330.793C362.432 333.17 366.033 334.028 370.795 333.349L371.095 335.427C369.935 335.586 368.834 335.666 367.794 335.666L367.814 335.646Z" fill="#303030"/>
<path d="M359.631 383.904L357.57 383.604L362.132 351.825L352.008 354.063L351.567 352.025L364.633 349.129L359.631 383.904Z" fill="#303030"/>
<path d="M345.585 345.514C345.105 348.09 343.724 350.008 342.524 349.788C341.303 349.568 340.723 347.291 341.203 344.695C341.683 342.118 343.064 340.2 344.264 340.42C345.465 340.64 346.065 342.937 345.585 345.514Z" fill="#303030"/>
<path d="M209.888 46.1803L138.258 78.978L104.484 131.23C111.887 148.129 129.194 187.298 136.257 200.261C145.321 216.96 213.289 194.329 236.979 185.64C248.484 181.426 258.028 180.806 264.791 181.306L291.962 198.603L313.131 82.2937L209.868 46.1803H209.888Z" fill="#FFC000"/>
<path d="M159.087 151.364C160.227 155.259 154.145 160.493 145.501 163.029C136.857 165.566 128.894 164.468 127.754 160.553C126.613 156.638 132.696 151.424 141.339 148.888C149.983 146.351 157.946 147.449 159.087 151.364Z" fill="#F7E7C6"/>
<path d="M150.563 158.595C153.414 158.595 155.725 156.288 155.725 153.442C155.725 150.596 153.414 148.288 150.563 148.288C147.712 148.288 145.401 150.596 145.401 153.442C145.401 156.288 147.712 158.595 150.563 158.595Z" fill="#081133"/>
<path d="M208.828 135.964C210.248 140.818 202.705 147.31 191.941 150.466C181.176 153.622 171.292 152.243 169.871 147.39C168.431 142.536 175.994 136.044 186.758 132.888C197.523 129.732 207.387 131.111 208.828 135.964Z" fill="#F7E7C6"/>
<path d="M202.285 138.701C202.285 141.857 199.724 144.413 196.562 144.413C193.401 144.413 190.84 141.857 190.84 138.701C190.84 135.545 193.401 132.988 196.562 132.988C199.724 132.988 202.285 135.545 202.285 138.701Z" fill="#081133"/>
<path d="M153.675 133.19L121.919 140.34L123.76 148.485L155.515 141.334L153.675 133.19Z" fill="#081133"/>
<path d="M196.858 106.557L162.154 125.087L166.098 132.45L200.802 113.92L196.858 106.557Z" fill="#081133"/>
<path d="M201.304 167.484L212.909 182.724C221.453 182.584 224.854 176.412 221.353 168.243C217.391 159.035 205.646 155.319 205.646 155.319C205.646 155.319 209.168 163.349 201.304 167.484Z" fill="#F7E7C6"/>
<path d="M216.451 183.083C218.692 182.524 220.493 181.426 221.733 179.808C223.994 176.871 224.114 172.657 222.093 167.923C218.032 158.495 206.387 154.7 205.886 154.56L204.226 154.041L204.926 155.639C204.926 155.639 206.687 159.814 204.646 163.389C203.025 166.245 199.444 168.063 194.042 168.782L194.242 170.36C200.184 169.581 204.146 167.484 206.027 164.168C207.607 161.372 207.307 158.435 206.887 156.658C210.108 157.996 217.671 161.731 220.613 168.582C222.413 172.757 222.353 176.412 220.453 178.869C218.452 181.466 214.57 182.484 209.508 181.725L209.268 183.303C211.969 183.703 214.37 183.623 216.431 183.123L216.451 183.083Z" fill="#081133"/>
<path d="M206.589 160.217L206.128 160.871L222.287 172.238L222.748 171.585L206.589 160.217Z" fill="#081133"/>
<path d="M221.293 178.969L221.813 178.39L205.526 163.609L204.986 164.188L221.293 178.969Z" fill="#081133"/>
<path d="M215.691 182.624L216.311 182.125L203.305 166.165L202.685 166.665L215.691 182.624Z" fill="#081133"/>
<path d="M216.603 161.661L204.348 171.501L204.85 172.124L217.104 162.284L216.603 161.661Z" fill="#081133"/>
<path d="M203.305 156.158C203.305 156.158 204.826 153.442 211.389 154.121C211.389 154.121 205.206 150.765 201.885 155.379L203.305 156.158Z" fill="#081133"/>
<path d="M157.586 136.424L165.269 172.797C165.269 172.797 194.802 172.397 187.919 158.975L181.476 162.17L186.578 161.731C186.578 161.731 184.577 167.703 167.49 169.92L157.586 136.444V136.424Z" fill="#081133"/>
<path d="M194.762 37.0521L137.277 57.8852C128.014 59.9625 120.09 63.2383 114.048 66.2943C105.144 82.014 98.1611 102.068 93.7593 127.256C93.7593 127.256 3.8216 131.69 0 167.184L104.524 131.23L227.275 89.005L240.721 78.978L194.762 37.0521Z" fill="#FF618E"/>
<path d="M125.813 96.715C117.889 93.8388 116.589 86.6081 120.711 79.717C119.63 79.7969 118.53 79.8768 117.449 79.9567C118.41 88.5256 125.273 94.2382 133.296 96.0359C134.336 96.2756 136.077 95.237 135.377 94.0585C133.116 90.2234 131.535 85.6094 131.795 81.1352C132.075 76.3214 137.498 73.0057 142.02 74.3439C144.581 75.103 146.241 77.7995 147.322 80.0366C150.503 86.688 151.524 111.975 138.258 104.705C136.957 103.986 134.056 105.743 135.697 106.662C153.704 116.529 155.225 87.5069 149.683 77.2402C146.081 70.5688 136.657 69.6101 131.375 75.1629C125.993 80.8156 128.854 89.5843 132.356 95.5366C133.056 94.8774 133.756 94.2183 134.436 93.5591C127.273 91.9612 121.611 86.5082 120.791 79.0579C120.611 77.4599 118.01 78.4986 117.529 79.2975C112.767 87.2872 114.828 95.6764 123.932 98.9921C125.393 99.5314 127.834 97.4341 125.833 96.715H125.813Z" fill="#303030"/>
<path d="M134.076 83.5321C134.697 86.8078 136.077 89.9638 139.318 91.362C143.32 93.0997 148.482 91.1023 152.144 89.4444C154.145 88.5456 150.983 88.7653 150.243 89.1049C146.782 90.6828 143.16 91.5417 140.159 88.7853C138.498 87.2673 137.798 84.7905 137.398 82.6532C137.278 82.034 133.936 82.793 134.076 83.5521V83.5321Z" fill="#303030"/>
<path d="M381.7 223.551L360.711 229.803C359.511 239.071 354.929 250.856 341.283 260.803L280.958 255.909L264.851 181.286C272.014 181.785 276.076 183.543 276.076 183.543L278.857 137.263L246.803 82.2937L227.295 89.025C181.396 41.826 135.717 55.3085 114.068 66.3143C173.113 -38.0509 315.432 46.9993 326.637 69.0708C339.522 94.4779 305.368 159.214 305.368 159.214C305.368 159.214 366.714 172.437 381.7 223.591V223.551Z" fill="#303030"/>
<path d="M315.592 244.304L305.968 223.571L347.266 212.485L326.437 180.627L328.198 179.488L350.587 213.764L308.909 224.949L316.733 241.788L381.4 222.552L382 224.57L315.592 244.304Z" fill="#FF6B3E"/>
<path d="M304.642 215.333L300.857 217.109L317.244 251.905L321.029 250.129L304.642 215.333Z" fill="#FF6B3E"/>
<path d="M270.673 187.957C271.914 194.449 273.155 200.94 274.375 207.452C274.635 208.83 277.676 208.051 277.396 206.633C276.156 200.141 274.915 193.65 273.695 187.138C273.435 185.76 270.393 186.539 270.653 187.957H270.673Z" fill="#FF6B3E"/>
<path d="M276.111 205.388L275.087 205.57L276.342 212.61L277.366 212.428L276.111 205.388Z" fill="#FF6B3E"/>
<path d="M280.317 185.001C282.058 191.952 283.799 198.923 285.54 205.874C285.9 207.292 288.921 206.493 288.581 205.055C286.84 198.104 285.099 191.133 283.359 184.182C282.999 182.764 279.977 183.563 280.317 185.001Z" fill="#FF6B3E"/>
<path d="M287.562 203.421L286.538 203.603L287.794 210.643L288.818 210.46L287.562 203.421Z" fill="#FF6B3E"/>
<path d="M297.865 116.33C297.865 143.714 280.157 165.926 258.308 165.926C236.459 165.926 218.752 143.714 218.752 116.33C218.752 88.9451 236.459 66.7538 258.308 66.7538C280.157 66.7538 297.865 88.9451 297.865 116.33Z" fill="#7404A3"/>
<path d="M264.011 82.5134C260.649 58.4845 254.827 31.8988 237.94 13.4427C219.752 -6.4117 193.001 -1.39818 171.592 9.92719C167.93 11.8647 171.252 14.9207 174.233 13.3428C198.203 0.659164 222.133 0.279654 238.56 23.8492C250.605 41.1269 255.067 63.6778 257.928 84.1513C258.308 86.8478 264.391 85.3498 263.991 82.5334L264.011 82.5134Z" fill="#FF618E"/>
<path d="M290.462 116.33C290.462 124.539 280.938 131.211 269.173 131.211C257.408 131.211 247.884 124.539 247.884 116.33C247.884 108.12 257.428 101.449 269.173 101.449C280.918 101.449 290.462 108.1 290.462 116.33Z" fill="#FF618E"/>
<path d="M262.47 165.706C246.623 165.706 233.718 143.874 233.718 117.029C233.718 98.1932 239.881 81.4148 249.785 73.2454L252.446 76.4612C243.602 83.7318 237.9 99.6513 237.9 117.009C237.9 141.537 248.924 161.511 262.47 161.511V165.686V165.706Z" fill="#081133"/>
<path d="M244.499 150.47L233.862 153.986L235.177 157.949L245.814 154.433L244.499 150.47Z" fill="#081133"/>
<path d="M239.167 138.586L225.511 143.29L226.876 147.236L240.531 142.532L239.167 138.586Z" fill="#081133"/>
<path d="M236.126 125.857L220.137 129.154L220.983 133.242L236.972 129.945L236.126 125.857Z" fill="#081133"/>
<path d="M235.668 111.508L218.528 113.425L218.993 117.573L236.133 115.657L235.668 111.508Z" fill="#081133"/>
<path d="M237.34 99.3716H220.552V103.546H237.34V99.3716Z" fill="#081133"/>
<path d="M240.636 87.9919L224.341 88.6083L224.499 92.78L240.795 92.1636L240.636 87.9919Z" fill="#081133"/>
<path d="M231.178 76.9142L230.718 81.0636L245.634 82.7101L246.093 78.5607L231.178 76.9142Z" fill="#081133"/>
</g>
<defs>
<clipPath id="clip0_139_5985">
<rect width="382" height="418" fill="white"/>
</clipPath>
</defs>
</svg>
